<?xml version="1.0" encoding="UTF-8" standalone="no"?>
<svg
   xml:space="preserve"
   width="300"
   height="300"
   version="1.1"
   id="svg2"
   sodipodi:docname="youtube.svg"
   inkscape:version="1.3 (0e150ed6c4, 2023-07-21)"
   xmlns:inkscape="http://www.inkscape.org/namespaces/inkscape"
   xmlns:sodipodi="http://sodipodi.sourceforge.net/DTD/sodipodi-0.dtd"
   xmlns="http://www.w3.org/2000/svg"
   xmlns:svg="http://www.w3.org/2000/svg"><defs
   id="defs2">&#10;    &#10;    &#10;  </defs><sodipodi:namedview
   id="namedview2"
   pagecolor="#ff0000"
   bordercolor="#000000"
   borderopacity="0.25"
   inkscape:showpageshadow="2"
   inkscape:pageopacity="0.0"
   inkscape:pagecheckerboard="0"
   inkscape:deskcolor="#d1d1d1"
   inkscape:zoom="2.7366667"
   inkscape:cx="149.8173"
   inkscape:cy="150"
   inkscape:window-width="1920"
   inkscape:window-height="1017"
   inkscape:window-x="-8"
   inkscape:window-y="356"
   inkscape:window-maximized="1"
   inkscape:current-layer="svg2" />&#10;  <path
   fill="#ff0000"
   d="m 149.9375,79.22268 c 0,0 -63.218847,6e-5 -79.085936,4.123042 -8.495787,2.373803 -15.491408,9.369503 -17.865234,17.990248 -4.122953,15.86709 -4.123047,48.72656 -4.123047,48.72656 0,0 9.4e-5,32.98419 4.123047,48.60156 2.373826,8.62062 9.244506,15.49137 17.865234,17.86524 15.992031,4.24788 79.085936,4.24803 79.085936,4.24803 0,0 63.34418,-5e-5 79.21095,-4.12304 8.62079,-2.37381 15.49133,-9.11965 17.74023,-17.86524 4.24793,-15.74232 4.24805,-48.60156 4.24805,-48.60156 0,0 0.12484,-32.98446 -4.24805,-48.85155 -2.2489,-8.620745 -9.11944,-15.491338 -17.74023,-17.740242 C 213.28168,79.222875 149.9375,79.22268 149.9375,79.22268 Z m -20.11523,40.48046 52.59961,30.35939 -52.59961,30.23437 z"
   id="path2"
   style="fill:#ffffff;fill-opacity:1;stroke-width:0.75"
   sodipodi:nodetypes="ccccccccccccccccc" />&#10;</svg>
